#!OML:ASF F:\VICON\USERDATA\INSTALL\rory3\rory3.ASF
:FULLY-SPECIFIED
:DEGREES
858
root 1.9165 33.05 -4.32857 -168.081 -21.1818 180.238
lowerback 6.44204 -2.68396 -6.51992
upperback 1.55435 -4.05296 0.866618
thorax -1.48261 -2.04355 4.84663
lowerneck -17.5806 2.7194 -10.037
upperneck 39.1276 3.76751 0.671801
head 17.0023 -1.08702 2.41878
rclavicle 3.55825e-014 1.74931e-014
rhumerus -27.9774 26.6913 -94.2571
rradius 67.2882
rwrist 54.4448
rhand -36.7348 -4.63161
rfingers 7.12502
rthumb -9.81876 -34.3827
lclavicle 3.55825e-014 1.74931e-014
lhumerus 10.1387 -42.6173 74.5591
lradius 81.6449
lwrist -38.6857
lhand -42.6568 51.1647
lfingers 7.12502
lthumb -15.5278 80.5612
rfemur -22.7906 -4.58461 24.0779
rtibia 50.74
rfoot -10.0156 -4.8091
rtoes -3.48677
lfemur -32.7171 15.6313 -27.6148
ltibia 44.1579
lfoot -15.4091 -5.26295
ltoes -7.04396
859
root 1.92996 33.0025 -4.3032 -167.633 -21.6319 180.194
lowerback 6.2 -2.77643 -6.39598
upperback 1.55633 -4.1494 0.836137
thorax -1.34437 -2.0959 4.73518
lowerneck -17.631 2.51605 -10.2728
upperneck 38.8296 3.57434 0.820878
head 16.8601 -1.13172 2.49745
rclavicle -5.12864e-014 -1.31198e-014
rhumerus -27.7311 26.3279 -94.2093
rradius 67.3043
rwrist 54.8508
rhand -36.7473 -5.11667
rfingers 7.12502
rthumb -9.83081 -34.8672
lclavicle -5.12864e-014 -1.31198e-014
lhumerus 10.9116 -42.659 74.0288
lradius 81.7622
lwrist -38.6278
lhand -42.4657 50.6616
lfingers 7.12502
lthumb -15.3437 80.0723
rfemur -22.9875 -4.50937 24.0855
rtibia 49.3312
rfoot -8.84164 -5.19533
rtoes -2.46638
lfemur -33.7531 15.8548 -27.9373
ltibia 44.8627
lfoot -15.8774 -5.62851
ltoes -8.31764
860
root 1.93095 32.9584 -4.2588 -167.265 -22.3858 180.409
lowerback 6.21959 -2.89202 -5.61724
upperback 1.43807 -4.25224 0.789606
thorax -1.52602 -2.13608 4.26354
lowerneck -17.6379 2.3058 -10.3377
upperneck 38.7672 3.25413 0.957317
head 16.848 -1.2346 2.5155
rclavicle -5.66536e-014 -1.59028e-015
rhumerus -27.6701 25.8841 -94.2549
rradius 67.1829
rwrist 54.3341
rhand -37.0328 -4.86882
rfingers 7.12502
rthumb -10.1063 -34.6061
lclavicle -5.66536e-014 -1.59028e-015
lhumerus 11.7036 -42.8772 73.5359
lradius 81.9958
lwrist -38.5275
lhand -41.6507 48.1607
lfingers 7.12502
lthumb -14.5586 77.6299
rfemur -23.1735 -4.86935 24.3219
rtibia 47.8557
rfoot -7.32166 -5.80542
rtoes -2.78027
lfemur -34.7814 15.7217 -27.98
ltibia 45.5645
lfoot -16.2844 -5.95759
ltoes -8.1869
861
root 1.95338 32.9094 -4.23631 -166.905 -22.7647 180.31
lowerback 6.32133 -2.97141 -5.67533
upperback 1.29995 -4.36525 0.830707
thorax -1.70515 -2.18103 4.35745
lowerneck -17.5744 2.2317 -10.5671
upperneck 38.7095 3.20242 0.998927
head 16.8018 -1.27699 2.56346
rclavicle 1.19271e-014 -2.70347e-014
rhumerus -27.76 25.8771 -94.325
rradius 67.0624
rwrist 53.6947
rhand -37.5215 -4.65725
rfingers 7.12502
rthumb -10.5777 -34.3711
lclavicle 1.19271e-014 -2.70347e-014
lhumerus 12.2403 -42.7696 73.2677
lradius 82.1675
lwrist -38.4325
lhand -41.8755 48.1535
lfingers 7.12502
lthumb -14.7752 77.6068
rfemur -23.2549 -4.61745 24.2387
rtibia 46.3315
rfoot -5.84235 -6.50849
rtoes -1.43542
lfemur -35.6932 15.9378 -28.2878
ltibia 46.2614
lfoot -16.649 -6.19818
ltoes -8.45777
862
root 1.97449 32.8597 -4.21547 -166.555 -23.0588 180.201
lowerback 6.36725 -2.95005 -5.66015
upperback 1.21474 -4.34012 0.747738
thorax -1.82963 -2.16121 4.26817
lowerneck -17.5427 2.1553 -10.6378
upperneck 38.6978 3.04341 1.20325
head 16.7906 -1.31368 2.64064
rclavicle 5.30755e-014 2.38542e-015
rhumerus -27.7684 25.3938 -94.4213
rradius 66.9389
rwrist 53.6736
rhand -38.0628 -4.81428
rfingers 7.12502
rthumb -11.0999 -34.5007
lclavicle 5.30755e-014 2.38542e-015
lhumerus 12.9804 -42.9323 72.7831
lradius 82.3834
lwrist -38.3139
lhand -42.7028 51.1003
lfingers 7.12502
lthumb -15.5722 80.4934
rfemur -23.2819 -4.29359 24.1284
rtibia 44.7071
rfoot -4.16394 -6.76643
rtoes 2.0196
lfemur -36.6721 16.387 -28.7093
ltibia 47.0083
lfoot -16.9028 -6.33587
ltoes -10.7426
863
root 1.99448 32.8107 -4.19549 -166.318 -23.3647 180.318
lowerback 6.36341 -2.87201 -5.50002
upperback 1.21013 -4.22395 0.766779
thorax -1.85566 -2.10261 4.19145
lowerneck -17.4927 1.95764 -10.5756
upperneck 38.5489 2.73325 1.2607
head 16.7245 -1.39501 2.6024
rclavicle 2.34566e-014 -3.49861e-014
rhumerus -27.6787 24.8118 -94.3347
rradius 66.8944
rwrist 53.7339
rhand -38.5186 -4.73902
rfingers 7.12502
rthumb -11.5394 -34.4014
lclavicle 2.34566e-014 -3.49861e-014
lhumerus 14.1008 -43.1879 72.1413
lradius 82.5017
lwrist -38.0908
lhand -42.6614 50.9298
lfingers 7.12502
lthumb -15.5323 80.326
rfemur -23.2542 -3.88532 24.2261
rtibia 43.0271
rfoot -2.38311 -7.12347
rtoes 5.92008
lfemur -37.6169 16.8303 -28.8758
ltibia 47.8195
lfoot -17.2236 -6.70096
ltoes -10.6929
864
root 2.01554 32.7598 -4.17125 -166.183 -23.7735 180.615
lowerback 6.38683 -2.89604 -5.17307
upperback 1.21937 -4.23053 0.90591
thorax -1.87152 -2.10662 4.15461
lowerneck -17.4808 1.79852 -10.8212
upperneck 38.3192 2.61478 1.30885
head 16.6084 -1.43916 2.6473
rclavicle -1.25234e-014 -1.39149e-014
rhumerus -27.6392 24.4393 -94.2204
rradius 66.8992
rwrist 54.2077
rhand -39.3931 -4.9481
rfingers 7.12502
rthumb -12.3827 -34.5614
lclavicle -1.25234e-014 -1.39149e-014
lhumerus 15.1369 -43.2106 71.6579
lradius 82.7754
lwrist -37.9505
lhand -41.8179 50.1981
lfingers 7.12502
lthumb -14.7197 79.6555
rfemur -23.2094 -3.49967 24.4985
rtibia 41.3511
rfoot -1.24037 -8.08728
rtoes 6.31778
lfemur -38.5274 17.1068 -28.769
ltibia 48.68
lfoot -17.6213 -7.49919
ltoes -7.73394
865
root 2.0397 32.7099 -4.14644 -165.935 -24.2303 180.709
lowerback 6.41182 -2.89199 -4.94947
upperback 1.23388 -4.21162 0.886859
thorax -1.89018 -2.09795 4.00996
lowerneck -17.6639 1.62819 -10.9344
upperneck 38.2873 2.40335 1.48545
head 16.6496 -1.4985 2.71478
rclavicle -2.66371e-014 1.66979e-014
rhumerus -27.5116 23.6991 -94.2182
rradius 66.8671
rwrist 55.063
rhand -40.891 -4.98352
rfingers 7.12502
rthumb -13.8265 -34.504
lclavicle -2.66371e-014 1.66979e-014
lhumerus 16.2171 -43.43 70.9625
lradius 82.9217
lwrist -37.788
lhand -41.6795 48.2279
lfingers 7.12502
lthumb -14.5864 77.695
rfemur -23.3101 -3.18291 24.5738
rtibia 39.7258
rfoot -0.00167039 -9.0878
rtoes 5.42661
lfemur -39.4964 17.2929 -28.8632
ltibia 49.6023
lfoot -17.7936 -8.31216
ltoes -5.46077
866
root 2.07503 32.6578 -4.13301 -165.438 -24.4097 180.197
lowerback 6.43645 -2.86628 -5.65731
upperback 1.20453 -4.22954 0.823024
thorax -1.8857 -2.10334 4.34289
lowerneck -17.8253 1.53867 -11.02
upperneck 38.3647 2.30579 1.55363
head 16.7378 -1.54199 2.74712
rclavicle -1.00187e-013 -8.74653e-015
rhumerus -27.4138 23.1856 -94.2194
rradius 66.859
rwrist 55.7818
rhand -42.4855 -4.90015
rfingers 7.12502
rthumb -15.3629 -34.3094
lclavicle -1.00187e-013 -8.74653e-015
lhumerus 16.9677 -43.3563 70.5714
lradius 83.0723
lwrist -37.7367
lhand -41.4509 48.0351
lfingers 7.12502
lthumb -14.3661 77.5179
rfemur -23.5167 -2.46186 24.0001
rtibia 38.1948
rfoot 0.97297 -10.2451
rtoes 4.32969
lfemur -40.5006 17.6733 -29.6545
ltibia 50.523
lfoot -17.8973 -8.82438
ltoes -4.88271
867
root 2.10692 32.5996 -4.10971 -165.016 -24.7854 180.007
lowerback 6.49937 -2.90379 -5.92094
upperback 1.11842 -4.30081 0.838506
thorax -1.98107 -2.13117 4.51825
lowerneck -17.822 1.48101 -11.0343
upperneck 38.4212 2.20455 1.57939
head 16.7756 -1.58491 2.74371
rclavicle 6.95746e-015 -6.12257e-014
rhumerus -27.4816 22.5789 -94.2055
rradius 67.0703
rwrist 56.4538
rhand -43.9085 -4.79272
rfingers 7.12502
rthumb -16.7331 -34.0916
lclavicle 6.95746e-015 -6.12257e-014
lhumerus 17.6379 -43.2325 70.2922
lradius 83.1567
lwrist -37.7088
lhand -41.3003 47.3319
lfingers 7.12502
lthumb -14.221 76.825
rfemur -23.7501 -1.94803 23.7688
rtibia 36.7388
rfoot 1.41896 -11.3067
rtoes 2.88008
lfemur -41.6852 17.9647 -30.1947
ltibia 51.5202
lfoot -17.9308 -9.19683
ltoes -4.30853
868
root 2.13517 32.5411 -4.08036 -164.634 -25.2649 179.916
lowerback 6.5456 -2.9676 -5.91469
upperback 1.08315 -4.3875 0.852154
thorax -2.03241 -2.17119 4.53892
lowerneck -17.7652 1.38261 -11.1105
upperneck 38.297 2.08982 1.61088
head 16.7054 -1.61908 2.75094
rclavicle 4.83047e-014 -5.56597e-015
rhumerus -27.4831 21.9429 -94.1331
rradius 67.3726
rwrist 56.9295
rhand -45.1816 -5.03874
rfingers 7.12502
rthumb -17.9583 -34.2296
lclavicle 4.83047e-014 -5.56597e-015
lhumerus 18.304 -43.0156 70.0998
lradius 83.2862
lwrist -37.7825
lhand -41.086 46.8804
lfingers 7.12502
lthumb -14.0145 76.3879
rfemur -23.9633 -1.63879 23.6372
rtibia 35.3345
rfoot 2.02107 -12.0832
rtoes 3.71906
lfemur -42.9171 18.2217 -30.6595
ltibia 52.5731
lfoot -17.824 -9.6471
ltoes -2.98196
869
root 2.16402 32.4852 -4.05168 -164.26 -25.7389 179.87
lowerback 6.58801 -3.10937 -5.9033
upperback 0.983249 -4.57486 0.924978
thorax -2.13197 -2.25704 4.62711
lowerneck -17.5614 1.41778 -11.1887
upperneck 38.1449 2.17126 1.55324
head 16.5688 -1.59158 2.74971
rclavicle 4.49253e-014 -3.97569e-015
rhumerus -27.5865 21.5463 -94.1336
rradius 67.7053
rwrist 57.1643
rhand -46.2599 -5.92809
rfingers 7.12502
rthumb -18.9957 -35.0205
lclavicle 4.49253e-014 -3.97569e-015
lhumerus 18.5118 -42.5913 70.2027
lradius 83.5401
lwrist -37.9578
lhand -40.8309 46.6842
lfingers 7.12502
lthumb -13.7686 76.2087
rfemur -24.1863 -1.32555 23.5543
rtibia 33.9282
rfoot 2.64941 -12.6709
rtoes 2.25998
lfemur -44.2124 18.4487 -31.0714
ltibia 53.713
lfoot -17.8481 -10.0809
ltoes -2.55287
870
root 2.1939 32.4264 -4.02532 -163.9 -26.2099 179.897
lowerback 6.56846 -3.09394 -5.81159
upperback 0.857167 -4.54681 0.877079
thorax -2.26638 -2.23408 4.52854
lowerneck -17.3197 1.40198 -10.8829
upperneck 38.2235 1.97387 1.54479
head 16.5677 -1.63684 2.65495
rclavicle -2.98177e-014 -2.06736e-014
rhumerus -27.7831 20.5812 -94.1829
rradius 68.2559
rwrist 57.5346
rhand -47.05 -6.92068
rfingers 7.12502
rthumb -19.7554 -35.9368
lclavicle -2.98177e-014 -2.06736e-014
lhumerus 19.1207 -42.7556 69.8816
lradius 83.8619
lwrist -37.9094
lhand -40.2314 46.1382
lfingers 7.12502
lthumb -13.1908 75.7009
rfemur -24.4117 -0.962781 23.5328
rtibia 32.5636
rfoot 2.91654 -13.202
rtoes 3.97722
lfemur -45.5593 18.6488 -31.4028
ltibia 54.895
lfoot -17.9182 -10.5523
ltoes -2.46095
871
root 2.22469 32.3647 -3.9985 -163.597 -26.6853 179.877
lowerback 6.61605 -3.15471 -5.6232
upperback 0.829589 -4.61967 0.789913
thorax -2.33508 -2.2687 4.3425
lowerneck -17.412 1.3665 -10.7179
upperneck 38.3738 1.84118 1.60309
head 16.6799 -1.66767 2.63174
rclavicle 3.22031e-014 -2.14687e-014
rhumerus -27.8414 19.9451 -94.2286
rradius 69.0184
rwrist 57.9846
rhand -47.7777 -7.15139
rfingers 7.12502
rthumb -20.4548 -36.094
lclavicle 3.22031e-014 -2.14687e-014
lhumerus 20.0521 -42.7564 69.1416
lradius 84.2136
lwrist -37.6995
lhand -39.8345 46.0874
lfingers 7.12502
lthumb -12.8083 75.6745
rfemur -24.5589 -0.57537 23.4512
rtibia 31.2827
rfoot 2.88135 -13.7422
rtoes 5.64134
lfemur -46.822 18.8473 -31.7517
ltibia 56.0809
lfoot -17.8766 -11.076
ltoes -1.97048
